<?xml version="1.0" encoding="iso-8859-1"?>
<!-- Generator: Adobe Illustrator 19.0.0, SVG Export Plug-In . SVG Version: 6.00 Build 0)  -->
<svg version="1.1" id="Layer_1" xmlns="http://www.w3.org/2000/svg" xmlns:xlink="http://www.w3.org/1999/xlink" x="0px" y="0px"
	 viewBox="0 0 505 505" style="enable-background:new 0 0 505 505;" xml:space="preserve">
<circle style="fill:#FD8469;" cx="252.5" cy="252.5" r="252.5"/>
<polygon style="fill:#FFFFFF;" points="102.4,143.6 162.5,203.6 277,318.2 310.9,284.3 196.3,169.8 146,119.5 "/>
<path style="fill:#4CDBC4;" d="M364.8,271.7c-47.4-17.9-89.4-47.7-125.2-83.5l-30.9-30.9l-17.3,17.3L306,289.2l-24.1,24.1
	L167.4,198.7L150.1,216l143.7,143.7l82.3-82.3C372.5,275.1,368.7,273.2,364.8,271.7z"/>
<g>
	<path style="fill:#324A5E;" d="M293.8,359.7l12.1,12.1l0.2-0.2c24.2,20.3,60.8,18.2,82.3-6.5c19.4-22.3,18.9-56.5-1.2-78.3
		c-3.4-3.7-7.2-6.8-11.2-9.4L293.8,359.7z"/>
	<path style="fill:#324A5E;" d="M227.6,205.3L198,234.9c-0.9,0.9-0.9,2.4,0,3.3l29.2,29.2c0.9,0.9,2.4,0.9,3.3,0l29.6-29.6
		c0.9-0.9,0.9-2.4,0-3.3l-29.2-29.2C230,204.4,228.6,204.4,227.6,205.3z"/>
</g>
<g>
	<path style="fill:#2B3B4E;" d="M232.9,218.1l-22.1,22.1c-1,1-2.7,1-3.8,0l0,0c-1-1-1-2.7,0-3.8l22.1-22.1c1-1,2.7-1,3.8,0l0,0
		C233.9,215.4,233.9,217.1,232.9,218.1z"/>
	<path style="fill:#2B3B4E;" d="M242,227.3l-22.1,22.1c-1,1-2.7,1-3.8,0l0,0c-1-1-1-2.7,0-3.8l22.1-22.1c1-1,2.7-1,3.8,0l0,0
		C243.1,224.5,243.1,226.2,242,227.3z"/>
	<path style="fill:#2B3B4E;" d="M251.1,236.4L229,258.5c-1,1-2.7,1-3.8,0l0,0c-1-1-1-2.7,0-3.8l22.1-22.1c1-1,2.7-1,3.8,0l0,0
		C252.2,233.7,252.2,235.4,251.1,236.4z"/>
</g>
<g>
</g>
<g>
</g>
<g>
</g>
<g>
</g>
<g>
</g>
<g>
</g>
<g>
</g>
<g>
</g>
<g>
</g>
<g>
</g>
<g>
</g>
<g>
</g>
<g>
</g>
<g>
</g>
<g>
</g>
</svg>
