<?xml version="1.0" encoding="iso-8859-1"?>
<!-- Generator: Adobe Illustrator 19.0.0, SVG Export Plug-In . SVG Version: 6.00 Build 0)  -->
<svg version="1.1" id="Capa_1" xmlns="http://www.w3.org/2000/svg" xmlns:xlink="http://www.w3.org/1999/xlink" x="0px" y="0px"
	 viewBox="0 0 512 512" style="enable-background:new 0 0 512 512;" xml:space="preserve">
<circle style="fill:#005ECE;" cx="256" cy="256" r="256"/>
<path style="fill:#00479B;" d="M511.815,256c0-10.973-0.693-21.786-2.032-32.396L397.483,111.304l-0.102,0.102l-117.954,7.864
	L180.1,271.796l-34.47-34.47l-23.611,23.611l39.352,39.352l-47.223,47.223l-15.741-15.741l-23.611,23.611l15.741,15.741
	l23.563,23.563l-0.06,0.059L230.005,510.71c8.488,0.85,17.099,1.289,25.81,1.289C397.201,512,511.815,397.384,511.815,256z"/>
<rect x="124.233" y="290.224" transform="matrix(-0.7071 -0.7071 0.7071 -0.7071 20.5757 711.4035)" style="fill:#A78966;" width="66.782" height="122.434"/>
<rect x="152.738" y="302.029" transform="matrix(-0.7071 -0.7071 0.7071 -0.7071 32.3877 739.9075)" style="fill:#957856;" width="33.391" height="122.434"/>
<polygon style="fill:#D8D7DA;" points="227.738,334.992 174.077,281.33 279.611,119.27 397.667,111.4 389.797,229.456 "/>
<polygon style="fill:#ACABB1;" points="397.667,111.4 200.908,308.161 227.738,334.992 389.797,229.456 "/>
<rect x="107.927" y="295.398" transform="matrix(-0.7071 -0.7071 0.7071 -0.7071 115.5644 672.0549)" style="fill:#FFDA44;" width="178.085" height="33.391"/>
<rect x="183.936" y="326.874" transform="matrix(-0.7071 -0.7071 0.7071 -0.7071 147.0607 748.0538)" style="fill:#FFA733;" width="89.043" height="33.391"/>
<rect x="70.484" y="366.234" transform="matrix(-0.7071 -0.7071 0.7071 -0.7071 -55.4452 742.8931)" style="fill:#FFDA44;" width="111.303" height="33.391"/>
<rect x="117.981" y="385.905" transform="matrix(-0.7071 -0.7071 0.7071 -0.7071 -35.7744 790.3825)" style="fill:#FFA733;" width="55.652" height="33.391"/>
<g>
</g>
<g>
</g>
<g>
</g>
<g>
</g>
<g>
</g>
<g>
</g>
<g>
</g>
<g>
</g>
<g>
</g>
<g>
</g>
<g>
</g>
<g>
</g>
<g>
</g>
<g>
</g>
<g>
</g>
</svg>
