<svg xmlns="http://www.w3.org/2000/svg" height="1060.5" width="893.89" viewBox="0 0 893.88934 1060.5187"><path fill="#54575b" d="M427.43 1059.2c-31.377-4.33-50.357-15.88-94-57.203-84.17-79.65-178-191.04-230.18-273.21-51.162-80.55-88.138-174.3-99.23-251.59-16.668-116.13 18.942-233.13 98.46-323.5 59.18-67.251 139.83-116.14 229-138.82 31.68-8.06 59.42-12.249 94.7-14.306 23.667-1.38 50.622-.264 78.248 3.237 131.57 16.675 249.17 87.542 320.1 192.89 35.011 52.002 56.523 107.5 65.31 168.5 8.305 57.651 3.917 113.22-13.877 175.74-20.99 73.747-56.379 147.09-104.63 216.85-54.201 78.36-137.29 174.59-210.9 244.26-44.06 41.703-62.375 52.784-94.5 57.176-12.521 1.712-26.19 1.72-38.5.02zm3.497-249.8c-.01-16.5-5.57-53.85-11.58-77.83-12.36-49.23-33.7-95.7-62.37-135.78-73.51-102.76-188.72-165.1-313.7-169.76l-17.15-.638-.733 7.814c-1.235 13.183.144 51.5 2.375 65.993 8.329 54.103 29.18 103.36 62.658 148.01 70.26 93.716 184.63 153.85 314.53 165.37 5.207.462 13.18.902 17.718.978l8.25.137-.003-4.25zm56.003 3.237c90.54-7.838 173.3-38.496 239.73-88.81 46.625-35.312 82.019-76.592 106.9-124.68 16.574-32.035 26.985-64.04 32.526-100 2.233-14.493 3.612-52.8 2.376-65.994l-.732-7.814-17.15.638c-126.26 4.699-243.42 68.814-316.01 172.94-34.255 49.131-58.041 108.37-67.048 166.99-2.546 16.566-4.579 35.854-4.585 43.496l-.003 4.25 6.25-.009c3.438-.005 11.425-.456 17.75-1.004z"/></svg>