<?xml version="1.0" encoding="UTF-8"?><!DOCTYPE svg PUBLIC "-//W3C//DTD SVG 1.1//EN" "http://www.w3.org/Graphics/SVG/1.1/DTD/svg11.dtd"><svg xmlns="http://www.w3.org/2000/svg"><symbol id="alarm" viewBox="0 0 55 55"><path d="M51.376 45.291C46.716 40.66 44.354 35.179 44.354 29v-8.994c.043-6.857-4.568-11.405-8.53-13.216-1.117-.51-2.294-.888-3.494-1.178V5c0-2.757-2.243-5-5-5s-5 2.243-5 5v.706c-1.079.283-2.139.629-3.146 1.093-4.379 2.018-8.815 6.882-8.855 13.201v9c0 6.388-2.256 11.869-6.705 16.291a1.002 1.002 0 0 0 .535 1.695l9.491 1.639c1.79.309 3.415.556 4.944.758C20.339 52.804 23.766 55 27.512 55c3.747 0 7.175-2.198 8.919-5.621 1.522-.201 3.139-.447 4.919-.755l9.49-1.639a1 1 0 0 0 .536-1.694zM24.329 5c0-1.654 1.346-3 3-3s3 1.346 3 3v.193a20.176 20.176 0 0 0-6 .05V5zm-8 16h-.006a1.001 1.001 0 0 1-.994-1.006c.03-4.682 3.752-7.643 5.948-8.654 3.849-1.775 8.594-1.772 12.469-.002a1 1 0 1 1-.832 1.818c-3.353-1.533-7.469-1.537-10.799 0-1.767.814-4.762 3.173-4.785 6.85a1 1 0 0 1-1.001.994zm17.606 28.678C32.416 51.739 30.047 53 27.512 53c-2.534 0-4.902-1.26-6.421-3.32h.001c.396.041.78.073 1.164.106.183.016.371.035.552.05.14.011.275.018.414.028 2.906.212 5.582.212 8.486.005.167-.012.33-.021.499-.034.218-.017.444-.04.665-.059.339-.03.676-.058 1.025-.094l.038-.004z" fill="#fff"/></symbol><symbol id="bell" viewBox="0 0 460 460"><path d="M408.079 344.152c0-154.423 7.873-291.468-144.268-308.509a34.07 34.07 0 0 0 .047-1.785C263.858 15.159 248.699 0 230 0s-33.858 15.159-33.858 33.858c0 .599.017 1.193.047 1.785C44.048 52.684 51.921 189.729 51.921 344.152c0 35.016-34.015 61.027-34.015 61.027h157.273C175.179 435.456 199.723 460 230 460s54.821-24.544 54.821-54.821h157.273s-34.015-26.012-34.015-61.027z" fill="#e2843c"/><path d="M230 405.179H17.906s34.015-26.012 34.015-61.027c0-165.073-9.004-310.294 178.079-310.294s178.079 145.221 178.079 310.294c0 35.015 34.015 61.027 34.015 61.027H230z" fill="#e5c400"/><path d="M281.049 425.159a54.648 54.648 0 0 0 3.772-19.98H175.179a54.648 54.648 0 0 0 3.772 19.98h102.098z" opacity=".3" fill="#5b5b5f"/><path d="M408.079 344.152c0-165.073 9.004-310.294-178.079-310.294v371.321h212.094s-34.015-26.011-34.015-61.027z" opacity=".3" fill="#5b5b5f"/></symbol><symbol id="cutter" viewBox="0 0 505 505"><circle cx="252.5" cy="252.5" r="252.5" fill="#fd8469"/><path fill="#fff" d="M102.4 143.6l60.1 60L277 318.2l33.9-33.9-114.6-114.5-50.3-50.3z"/><path d="M364.8 271.7c-47.4-17.9-89.4-47.7-125.2-83.5l-30.9-30.9-17.3 17.3L306 289.2l-24.1 24.1-114.5-114.6-17.3 17.3 143.7 143.7 82.3-82.3c-3.6-2.3-7.4-4.2-11.3-5.7z" fill="#4cdbc4"/><g fill="#324a5e"><path d="M293.8 359.7l12.1 12.1.2-.2c24.2 20.3 60.8 18.2 82.3-6.5 19.4-22.3 18.9-56.5-1.2-78.3-3.4-3.7-7.2-6.8-11.2-9.4l-82.2 82.3zM227.6 205.3L198 234.9c-.9.9-.9 2.4 0 3.3l29.2 29.2c.9.9 2.4.9 3.3 0l29.6-29.6c.9-.9.9-2.4 0-3.3l-29.2-29.2c-.9-.9-2.3-.9-3.3 0z"/></g><g fill="#2b3b4e"><path d="M232.9 218.1l-22.1 22.1c-1 1-2.7 1-3.8 0-1-1-1-2.7 0-3.8l22.1-22.1c1-1 2.7-1 3.8 0 1 1.1 1 2.8 0 3.8zM242 227.3l-22.1 22.1c-1 1-2.7 1-3.8 0-1-1-1-2.7 0-3.8l22.1-22.1c1-1 2.7-1 3.8 0 1.1 1 1.1 2.7 0 3.8zM251.1 236.4L229 258.5c-1 1-2.7 1-3.8 0-1-1-1-2.7 0-3.8l22.1-22.1c1-1 2.7-1 3.8 0 1.1 1.1 1.1 2.8 0 3.8z"/></g></symbol><symbol id="sword" viewBox="0 0 512 512"><circle cx="256" cy="256" r="256" fill="#005ece"/><path d="M511.815 256c0-10.973-.693-21.786-2.032-32.396l-112.3-112.3-.102.102-117.954 7.864L180.1 271.796l-34.47-34.47-23.611 23.611 39.352 39.352-47.223 47.223-15.741-15.741-23.611 23.611 15.741 15.741 23.563 23.563-.06.059L230.005 510.71c8.488.85 17.099 1.289 25.81 1.289 141.386.001 256-114.615 256-255.999z" fill="#00479b"/><path fill="#a78966" d="M137.948 418.341l-47.222-47.222 86.573-86.573 47.222 47.222z"/><path fill="#957856" d="M137.951 418.342l-23.61-23.611 86.573-86.573 23.61 23.61z"/><path fill="#d8d7da" d="M227.738 334.992l-53.661-53.662 105.534-162.06 118.056-7.87-7.87 118.056z"/><path fill="#acabb1" d="M397.667 111.4L200.908 308.161l26.83 26.831 162.059-105.536z"/><path fill="#ffda44" d="M248.125 386.864L122.201 260.94l23.611-23.61 125.924 125.923z"/><path fill="#ffa733" d="M248.132 386.86l-62.962-62.962 23.61-23.611 62.963 62.962z"/><path fill="#ffda44" d="M153.68 434.09l-78.703-78.703 23.611-23.61 78.702 78.702z"/><path fill="#ffa733" d="M153.675 434.085l-39.352-39.352 23.61-23.61 39.352 39.35z"/></symbol><symbol id="ufo" viewBox="0 0 893.88934 1060.5187"><path fill="#54575b" d="M427.43 1059.2c-31.377-4.33-50.357-15.88-94-57.203-84.17-79.65-178-191.04-230.18-273.21-51.162-80.55-88.138-174.3-99.23-251.59-16.668-116.13 18.942-233.13 98.46-323.5 59.18-67.251 139.83-116.14 229-138.82 31.68-8.06 59.42-12.249 94.7-14.306 23.667-1.38 50.622-.264 78.248 3.237 131.57 16.675 249.17 87.542 320.1 192.89 35.011 52.002 56.523 107.5 65.31 168.5 8.305 57.651 3.917 113.22-13.877 175.74-20.99 73.747-56.379 147.09-104.63 216.85-54.201 78.36-137.29 174.59-210.9 244.26-44.06 41.703-62.375 52.784-94.5 57.176-12.521 1.712-26.19 1.72-38.5.02zm3.497-249.8c-.01-16.5-5.57-53.85-11.58-77.83-12.36-49.23-33.7-95.7-62.37-135.78-73.51-102.76-188.72-165.1-313.7-169.76l-17.15-.638-.733 7.814c-1.235 13.183.144 51.5 2.375 65.993 8.329 54.103 29.18 103.36 62.658 148.01 70.26 93.716 184.63 153.85 314.53 165.37 5.207.462 13.18.902 17.718.978l8.25.137-.003-4.25zm56.003 3.237c90.54-7.838 173.3-38.496 239.73-88.81 46.625-35.312 82.019-76.592 106.9-124.68 16.574-32.035 26.985-64.04 32.526-100 2.233-14.493 3.612-52.8 2.376-65.994l-.732-7.814-17.15.638c-126.26 4.699-243.42 68.814-316.01 172.94-34.255 49.131-58.041 108.37-67.048 166.99-2.546 16.566-4.579 35.854-4.585 43.496l-.003 4.25 6.25-.009c3.438-.005 11.425-.456 17.75-1.004z"/></symbol></svg>